<?xml version="1.0" standalone="no"?>
<!DOCTYPE svg PUBLIC "-//W3C//DTD SVG 1.1//EN" "http://www.w3.org/Graphics/SVG/1.1/DTD/svg11.dtd" >
<!--
2013-9-30: Created.
-->
<svg>
<metadata>
Created by iconfont
</metadata>
<defs>

<font id="iconfont" horiz-adv-x="1024" >
  <font-face
    font-family="iconfont"
    font-weight="500"
    font-stretch="normal"
    units-per-em="1024"
    ascent="896"
    descent="-128"
  />
    <missing-glyph />
    
    <glyph glyph-name="u-a-dwon" unicode="&#60952;" d="M512 192L256 512h512z"  horiz-adv-x="1024" />

    
    <glyph glyph-name="u-a-export" unicode="&#60951;" d="M888.32 138.62400000000002h-53.76a7.744 7.744 0 0 1-7.744-7.68v-61.824h-629.76V698.88h629.824v-61.76c0-4.224 3.52-7.68 7.68-7.68h53.824a7.68 7.68 0 0 1 7.68 7.68V737.28a30.656 30.656 0 0 1-30.72 30.72H158.72a30.656 30.656 0 0 1-30.72-30.72v-706.56c0-17.024 13.696-30.72 30.72-30.72h706.56c17.024 0 30.72 13.696 30.72 30.72v100.16a7.68 7.68 0 0 1-7.68 7.68z m18.56 251.648l-141.888 112a8 8 0 0 1-12.992-6.272v-76.032H438.016a8 8 0 0 1-8-8v-56c0-4.352 3.584-7.936 8-7.936h313.984V272c0-6.72 7.808-10.496 12.992-6.272l141.888 112a8 8 0 0 1 0 12.544z"  horiz-adv-x="1024" />

    
    <glyph glyph-name="u-a-home" unicode="&#60950;" d="M951.808 411.008L539.904 822.656a31.936 31.936 0 0 1-45.184 0L82.816 411.008A64 64 0 0 1 128 301.696h43.392v-293.696a32 32 0 0 1 32-32h249.92v224h112v-224h265.856a32 32 0 0 1 32 32v293.76h43.456a64.064 64.064 0 0 1 45.184 109.312z"  horiz-adv-x="1024" />

    
    <glyph glyph-name="u-a-massage" unicode="&#60949;" d="M267.392 17.279999999999973H194.944a192 192 0 0 0-192 192V697.856a192 192 0 0 0 192 192h632.896a192 192 0 0 0 192-192v-488.576a192 192 0 0 0-192-192H570.816L384-128l-116.608 145.28z m134.656 14.976l117.12 113.024h308.672a64 64 0 0 1 64 64V697.856a64 64 0 0 1-64 64h-632.96a64 64 0 0 1-64-64v-488.576a64 64 0 0 1 64-64H348.16l53.952-113.024zM320 512h369.536V640H320zM320 320h369.536V448H320z"  horiz-adv-x="1024" />

    
    <glyph glyph-name="u-a-right" unicode="&#60948;" d="M349.568 141.12l66.432-60.16 271.296 299.776L415.488 672l-65.472-61.12 215.552-231.04z"  horiz-adv-x="1024" />

    
    <glyph glyph-name="u-a-search" unicode="&#60947;" d="M732.48 190.08000000000004l144.768-144.832a64 64 0 0 0-90.496-90.496L631.04 110.39999999999998a384 384 0 1 0 101.376 79.68zM448 192a256 256 0 1 1 0 512 256 256 0 0 1 0-512z"  horiz-adv-x="1024" />

    
    <glyph glyph-name="u-a-setting" unicode="&#60946;" d="M1017.408 440c-4.032 22.4-25.472 44.864-47.616 49.92l-16.512 3.84a165.312 165.312 0 0 0-95.616 75.968 165.312 165.312 0 0 0-17.664 121.792l4.864 15.616c6.656 21.76-1.984 51.648-19.2 66.368 0 0-15.68 13.184-59.776 38.656-44.032 25.472-63.168 32.448-63.168 32.448-21.376 7.68-51.52 0.32-67.008-16.32l-11.584-12.48a164.8 164.8 0 0 0-113.6-45.248c-44.16 0-84.224 17.28-113.92 45.568l-11.2 12.096C370.048 844.8 339.776 852.224 318.4 844.544c0 0-19.136-6.912-63.232-32.448-44.032-25.472-59.52-38.592-59.52-38.592-17.408-14.72-26.048-44.544-19.328-66.368l4.8-15.744a166.4 166.4 0 0 0-17.6-121.6A165.12 165.12 0 0 0 67.2 493.632L51.2 490.048c-22.08-5.12-43.52-27.648-47.552-49.92 0 0-3.648-20.16-3.648-71.168 0-51.008 3.648-71.04 3.648-71.04 4.032-22.4 25.472-44.928 47.552-50.048l15.68-3.52a166.016 166.016 0 0 0 114.176-198.144l-4.736-15.552c-6.72-21.696 1.92-51.584 19.328-66.304 0 0 15.552-13.248 59.648-38.72 44.096-25.6 63.168-32.384 63.168-32.384 21.376-7.744 51.52-0.32 66.944 16.256l11.072 11.904a165.696 165.696 0 0 0 228.288 0l10.944-11.904c15.488-16.64 45.44-24 66.944-16.256 0 0 19.072 6.976 63.36 32.384 43.968 25.472 59.52 38.72 59.52 38.72 17.28 14.72 25.92 44.48 19.328 66.304l-4.864 16.064a166.272 166.272 0 0 0 114.176 197.632v0.064l15.68 3.648c22.208 4.992 43.648 27.52 47.616 49.92 0 0 3.648 20.096 3.648 71.168-0.128 50.752-3.712 70.848-3.712 70.848z m-506.88-235.584a164.288 164.288 0 0 0-164.096 164.48 164.224 164.224 0 0 0 164.096 164.416 164.224 164.224 0 0 0 163.968-164.48 164.16 164.16 0 0 0-163.968-164.48z"  horiz-adv-x="1024" />

    
    <glyph glyph-name="u-a-user" unicode="&#60945;" d="M858.496 132.41600000000005a374.016 374.016 0 0 1-80.64 119.488 375.68 375.68 0 0 1-119.488 80.64l-1.152 0.448a247.936 247.936 0 1 1-290.432-0.128l-1.152-0.448c-44.8-18.944-85.056-46.016-119.552-80.64a375.68 375.68 0 0 1-110.08-257.6 8 8 0 0 1 8-8.192h60.032a8 8 0 0 1 7.936 7.808 298.112 298.112 0 0 0 87.808 204.288A298.048 298.048 0 0 0 512 286.08000000000004c80.192 0 155.52-31.232 212.224-87.936a298.112 298.112 0 0 0 87.744-204.288 7.936 7.936 0 0 1 8.064-7.808h59.968c4.48 0 8.128 3.712 8 8.192a372.672 372.672 0 0 1-29.44 138.24zM512 361.98400000000004a170.88 170.88 0 0 0-121.6 50.432 170.88 170.88 0 0 0-50.368 121.6c0 45.888 17.92 89.088 50.368 121.6A170.88 170.88 0 0 0 512 705.92c45.888 0 89.088-17.92 121.6-50.368a170.88 170.88 0 0 0 50.368-121.6 170.88 170.88 0 0 0-50.368-121.6 170.88 170.88 0 0 0-121.6-50.432z"  horiz-adv-x="1024" />

    
    <glyph glyph-name="u-a-systemmenu" unicode="&#60942;" d="M353.664 374.4A350.656 350.656 0 0 1 320 224c0-50.368 10.56-98.304 29.632-141.632A191.808 191.808 0 0 0 192 0H64a64 64 0 0 0-64 64v128a192 192 0 0 0 192 192h128c12.352 0 23.872-3.52 33.664-9.6z m473.088 165.824A350.592 350.592 0 0 1 672 576c-53.76 0-104.832-12.096-150.4-33.664A63.68 63.68 0 0 0 512 576V736A160 160 0 0 0 672 896H832a64 64 0 0 0 64-64v-160c0-54.656-27.392-102.912-69.248-131.776zM64 896h128a192 192 0 0 0 192-192v-128a64 64 0 0 0-64-64H192a192 192 0 0 0-192 192V832a64 64 0 0 0 64 64zM1021.888 230.01599999999996a37.248 37.248 0 0 1-26.88 26.688l-9.28 2.048a92.544 92.544 0 0 0-53.952 40.64 84.416 84.416 0 0 0-9.92 65.088l2.752 8.32a35.392 35.392 0 0 1-10.88 35.52s-8.832 7.04-33.664 20.736a272 272 0 0 1-35.648 17.28 39.68 39.68 0 0 1-37.76-8.704l-6.592-6.656a95.744 95.744 0 0 0-64.064-24.192c-24.96 0-47.552 9.216-64.32 24.32l-6.272 6.464a39.68 39.68 0 0 1-37.76 8.768s-10.88-3.712-35.712-17.344c-24.832-13.632-33.6-20.672-33.6-20.672a35.2 35.2 0 0 1-10.88-35.456l2.688-8.448c5.376-21.312 2.496-44.544-9.92-65.024-12.48-20.48-32.192-34.432-54.272-40.64l-9.088-1.984a37.312 37.312 0 0 1-26.88-26.688S448 219.32799999999997 448 192c0-27.328 2.048-38.016 2.048-38.016a37.44 37.44 0 0 1 26.816-26.816l8.832-1.856c22.208-6.272 41.984-20.288 54.528-40.832 12.48-20.48 15.36-43.776 9.92-65.088l-2.688-8.32a35.2 35.2 0 0 1 10.88-35.456s8.768-7.04 33.664-20.736c24.896-13.632 35.648-17.28 35.648-17.28a39.872 39.872 0 0 1 37.76 8.704l6.272 6.336a95.552 95.552 0 0 0 64.32 24.384c24.96 0 47.616-9.28 64.384-24.384l6.208-6.4c8.704-8.832 25.664-12.8 37.76-8.64 0 0 10.752 3.712 35.712 17.28 24.832 13.632 33.6 20.736 33.6 20.736a35.328 35.328 0 0 1 10.88 35.456l-2.688 8.576a85.056 85.056 0 0 0 9.92 64.832c12.544 20.608 32.32 34.56 54.464 40.832l8.832 1.984a37.184 37.184 0 0 1 26.88 26.752s2.048 10.688 2.048 38.016c-0.064 27.136-2.112 37.888-2.112 37.888zM736 104.06399999999996c-51.072 0-92.544 39.36-92.544 87.936 0 48.512 41.472 87.872 92.544 87.872 51.136 0 92.544-39.36 92.544-87.936 0-48.576-41.408-87.872-92.544-87.872z"  horiz-adv-x="1024" />

    
    <glyph glyph-name="u-a-left" unicode="&#60941;" d="M610.432 141.12l-66.432-60.16L272.704 380.79999999999995 544.512 672l65.472-61.12-215.552-231.04z"  horiz-adv-x="1024" />

    
    <glyph glyph-name="u-a-xding" unicode="&#60940;" d="M536.576 120.32000000000005a32 32 0 0 1 14.912-8.96 99.456 99.456 0 0 1 37.76-2.688c28.416 3.584 50.432 21.888 53.056 54.016l-2.56 113.664 151.872 175.168 60.032 3.52c11.52 1.92 20.352 4.864 29.696 10.24 36.224 20.864 44.032 61.888 8.96 104.192l-208.192 209.792a32 32 0 0 1-18.624 9.216l-3.584 0.32a97.28 97.28 0 0 1-36.096-3.904c-31.552-9.856-51.456-36.48-48.256-75.52v-38.784L403.008 523.9680000000001l-107.584-6.528-8.192-1.536c-6.848-2.304-15.616-6.4-24.576-13.184-24.96-18.688-36.48-48-22.272-81.6l7.04-10.304 90.944-89.792-203.52-264.576c-23.04-29.888 15.68-68.032 45.248-44.544l262.656 208.192 93.76-99.84zM406.4 304.448a32 32 0 0 1-2.88 42.24L299.008 449.92c0.384 0.448 1.088 0.896 2.112 1.664a30.72 30.72 0 0 0 3.712 2.368L417.6 460.8a32 32 0 0 1 18.816 7.552l191.808 163.136a32 32 0 0 1 11.264 24.32v56.32c-0.768 10.368-0.704 10.432 3.392 11.712a25.792 25.792 0 0 0 3.392 0.768l196.736-198.08c7.616-9.344 8.512-4.48 6.4-5.76a25.216 25.216 0 0 0-5.888-2.368l-69.12-3.712a32 32 0 0 1-22.272-10.944L583.296 308.928a32 32 0 0 1-7.808-21.76l2.752-115.2h-2.432L469.248 285.376a32 32 0 0 1-43.2 3.2L344.32 223.67999999999995l62.144 80.768z"  horiz-adv-x="1024" />

    
    <glyph glyph-name="u-a-mding" unicode="&#60939;" d="M160.32 36.99199999999996l285.632 226.432 113.92-121.216s47.616-12.928 50.56 23.04L607.488 288l168.768 194.752 73.6 4.288s57.664 11.584 15.872 62.08l-206.336 207.68s-56.192 7.168-51.904-44.672v-56.32L415.68 492.736l-118.272-7.168s-43.328-14.4-27.52-51.904l111.168-109.632-220.8-286.976z"  horiz-adv-x="1024" />

    
    <glyph glyph-name="u-a-key" unicode="&#60938;" d="M608 784a304 304 0 0 1-240.128-490.496l-41.088-41.088-62.272 62.272a8.128 8.128 0 0 1-11.392 0l-39.808-39.808a8.128 8.128 0 0 1 0-11.392l62.272-62.272-44.864-44.928-62.336 62.336a8.128 8.128 0 0 1-11.392 0l-39.808-39.808a8.128 8.128 0 0 1 0-11.392l62.336-62.336-65.28-65.28a8 8 0 0 1 0-11.328l42.24-42.24a8 8 0 0 1 11.328 0l253.568 253.568a304 304 0 0 1 186.624-63.808 304 304 0 1 1 0 608z m161.216-465.216A226.24 226.24 0 0 0 608 252.03200000000004c-60.928 0-118.208 23.68-161.216 66.752A226.24 226.24 0 0 0 380.032 480c0 60.928 23.68 118.208 66.752 161.216A226.24 226.24 0 0 0 608 707.968c60.928 0 118.208-23.68 161.216-66.752A226.24 226.24 0 0 0 835.968 480c0-60.928-23.68-118.208-66.752-161.216z"  horiz-adv-x="1024" />

    
    <glyph glyph-name="u-a-usericon" unicode="&#60937;" d="M471.04 547.8399999999999m-184.32 0a184.32 184.32 0 1 1 368.64 0 184.32 184.32 0 1 1-368.64 0ZM163.84 87.03999999999996a307.2 215.04 0 1 1 614.4 0 307.2 215.04 0 1 1-614.4 0Z"  horiz-adv-x="1024" />

    
    <glyph glyph-name="u-a-defaulticon" unicode="&#60936;" d="M128 832h768a64 64 0 0 0 64-64v-768a64 64 0 0 0-64-64H128a64 64 0 0 0-64 64V768a64 64 0 0 0 64 64z m128-192v-96h64V640H256z m176 0a48 48 0 0 1 0-96h288a48 48 0 1 1 0 96h-288zM256 448v-96h64V448H256z m176 0a48 48 0 0 1 0-96h288a48 48 0 1 1 0 96h-288zM256 256v-96h64V256H256z m176 0a48 48 0 1 1 0-96h288a48 48 0 1 1 0 96h-288z"  horiz-adv-x="1024" />

    
    <glyph glyph-name="u-a-skin-default" unicode="&#60935;" d="M512 384m-512 0a512 512 0 1 1 1024 0 512 512 0 1 1-1024 0Z"  horiz-adv-x="1024" />

    
    <glyph glyph-name="u-a-skin-select" unicode="&#60934;" d="M512-128A512 512 0 1 0 512 896a512 512 0 0 0 0-1024z m-82.488889 412.558222L292.750222 430.250667a42.666667 42.666667 0 1 1-62.236444-58.368l167.708444-178.858667a42.666667 42.666667 0 0 1 69.006222 9.557333l304.753778 292.864a42.666667 42.666667 0 0 1-59.164444 61.553778L429.511111 284.558222z"  horiz-adv-x="1024" />

    
    <glyph glyph-name="u-a-menu" unicode="&#60933;" d="M0 342.317176L553.682824 896l85.232941-85.172706-553.743059-553.743059L0 342.317176z m170.345412-170.405647l553.743059 553.743059 85.172705-85.232941-553.682823-553.682823-85.232941 85.172705z m170.405647-170.345411l553.682823 553.682823 85.172706-85.172706-553.682823-553.682823-85.172706 85.172706z"  horiz-adv-x="1024" />

    
    <glyph glyph-name="u-a-menu1" unicode="&#60932;" d="M188.656941 14.637175999999954v783.058824h120.470588v-783.058824h-120.470588z m240.941177 0v783.058824h120.470588v-783.058824h-120.470588z m240.941176 0v783.058824h120.470588v-783.058824h-120.470588z"  horiz-adv-x="1024" />

    
    <glyph glyph-name="u-a-chk" unicode="&#60931;" d="M512-128c-119.872 49.792-206.336 96.128-259.52 139.008C145.28 97.53599999999994 64 227.072 64 359.48800000000006v400l44.224 1.088c6.4 0 16.704 0.576 31.04 1.6 14.4 1.088 39.04 4.736 74.112 11.008a644.928 644.928 0 0 1 97.92 25.28C383.808 824.256 441.92 851.2 485.76 879.232L512 896l26.368-16.768c43.712-27.968 101.952-55.04 174.336-80.768 30.272-10.56 62.912-18.944 97.984-25.28 35.008-6.272 59.712-9.92 74.048-11.008 14.336-1.024 24.704-1.6 31.104-1.6l44.16-1.024v-400.064c0-126.912-74.688-251.264-175.36-337.536-54.912-47.104-145.792-97.088-272.64-149.952z m0 512a64 64 0 1 1 0 128 64 64 0 0 1 0-128z m192 0a64 64 0 1 1 0 128 64 64 0 0 1 0-128zM320 384a64 64 0 1 1 0 128 64 64 0 0 1 0-128z"  horiz-adv-x="1024" />

    
    <glyph glyph-name="u-a-pwd" unicode="&#60930;" d="M234.688 512V618.688a277.312 277.312 0 1 0 554.624 0 64 64 0 1 0-128 0 149.312 149.312 0 1 1-298.624 0V512h490.624a128 128 0 0 0 128-128v-384a128 128 0 0 0-128-128H170.688a128 128 0 0 0-128 128V384a128 128 0 0 0 128 128h64zM512 341.312c-47.104 0-85.312-38.208-85.312-85.312v-170.688a85.312 85.312 0 0 1 170.624 0V256c0 47.104-38.208 85.312-85.312 85.312z"  horiz-adv-x="1024" />

    
    <glyph glyph-name="icon-u-a-login-user" unicode="&#60929;" d="M313.216 425.28a277.312 277.312 0 1 0 397.568 0A469.376 469.376 0 0 0 981.312 0v-64a64 64 0 0 0-64-64H106.688a64 64 0 0 0-64 64v64c0 188.16 110.72 350.464 270.528 425.28zM512 85.31200000000001L618.688 192 512 298.688 405.312 192 512 85.31200000000001z"  horiz-adv-x="1024" />

    
    <glyph glyph-name="xf-more" unicode="&#59442;" d="M256 448a64 64 0 1 0 0-128 64 64 0 0 0 0 128z m256 0a64 64 0 1 0 0-128 64 64 0 0 0 0 128z m256 0a64 64 0 1 0 0-128 64 64 0 0 0 0 128z"  horiz-adv-x="1024" />

    
    <glyph glyph-name="xf-move" unicode="&#59486;" d="M384 704a64 64 0 1 0 0 128 64 64 0 0 0 0-128z m256 0a64 64 0 1 0 0 128 64 64 0 0 0 0-128zM384 448a64 64 0 1 0 0 128 64 64 0 0 0 0-128z m256 0a64 64 0 1 0 0 128 64 64 0 0 0 0-128z m-256-256a64 64 0 1 0 0 128 64 64 0 0 0 0-128z m256 0a64 64 0 1 0 0 128 64 64 0 0 0 0-128z m-256-256a64 64 0 1 0 0 128 64 64 0 0 0 0-128z m256 0a64 64 0 1 0 0 128 64 64 0 0 0 0-128z"  horiz-adv-x="1024" />

    
    <glyph glyph-name="xf-top-message" unicode="&#59551;" d="M298.666667 143.616a128 128 0 0 0-128 128V597.333333a128 128 0 0 0 128 128h421.973333a128 128 0 0 0 128-128v-325.717333a128 128 0 0 0-128-128h-171.349333l-138.453334-133.674667-63.872 133.674667H298.666667z m216.149333 85.333333h205.824a42.666667 42.666667 0 0 1 42.666667 42.666667V597.333333a42.666667 42.666667 0 0 1-42.666667 42.666667H298.666667a42.666667 42.666667 0 0 1-42.666667-42.666667v-325.717333a42.666667 42.666667 0 0 1 42.666667-42.666667h102.144l35.968-75.349333 78.037333 75.349333zM363.093333 490.666667a21.333333 21.333333 0 0 0 0 42.666666h246.357334a21.333333 21.333333 0 1 0 0-42.666666H363.093333z m0-128a21.333333 21.333333 0 1 0 0 42.666666h246.357334a21.333333 21.333333 0 1 0 0-42.666666H363.093333z"  horiz-adv-x="1024" />

    
    <glyph glyph-name="xf-picture" unicode="&#59568;" d="M128 768h768a64 64 0 0 0 64-64v-640a64 64 0 0 0-64-64H128a64 64 0 0 0-64 64V704a64 64 0 0 0 64 64z m0-64v-640h768V704H128z m192-256a64 64 0 1 0 0 128 64 64 0 0 0 0-128z m-130.368-319.744L384 384l189.76-114.624L826.752 576v-447.744H189.632z"  horiz-adv-x="1024" />

    
    <glyph glyph-name="xf-sorting-down" unicode="&#59571;" d="M696.96 311.616c4.672-5.632 7.04-12.352 7.04-20.032s-2.368-14.4-7.04-20.032l-168.064-199.168A21.504 21.504 0 0 0 512 64a21.504 21.504 0 0 0-16.896 8.384L327.104 271.552A29.952 29.952 0 0 0 320 291.584c0 7.68 2.368 14.4 7.04 20.032A21.44 21.44 0 0 0 344.064 320h336c6.592 0 12.16-2.816 16.896-8.384z"  horiz-adv-x="1024" />

    
    <glyph glyph-name="xf-doublearrow-left" unicode="&#59572;" d="M264.128 368.704l216.512-287.36a32 32 0 1 0-51.072-38.528L198.4 349.504a31.872 31.872 0 0 0-6.272 22.528 31.872 31.872 0 0 0 6.656 17.088l236.416 302.592a32 32 0 0 0 50.432-39.424L264.128 368.704z m291.328 0l216.512-287.36a32 32 0 1 0-51.136-38.528l-231.04 306.688a31.872 31.872 0 0 0-6.336 22.528 31.872 31.872 0 0 0 6.72 17.088l236.416 302.592a32 32 0 0 0 50.432-39.424L555.456 368.704z"  horiz-adv-x="1024" />

    
    <glyph glyph-name="xf-gobottom" unicode="&#59574;" d="M526.506667 219.946667l210.773333 211.2c16.64 16.64 11.050667 30.165333-12.501333 30.165333h-128V682.666667a42.666667 42.666667 0 0 1-42.666667 42.666666h-85.333333a42.666667 42.666667 0 0 1-42.666667-42.666666v-221.354667h-128c-23.594667 0-29.184-13.525333-12.544-30.165333l210.773333-211.2a21.290667 21.290667 0 0 1 30.165334 0zM768 128H256a42.666667 42.666667 0 0 1 0-85.333333h512a42.666667 42.666667 0 0 1 0 85.333333z"  horiz-adv-x="1024" />

    
    <glyph glyph-name="xf-user-L" unicode="&#59576;" d="M179.2-6.399999999999977c0 6.4-2.133333 14.933333-2.133333 21.333333 0 130.133333 149.333333 234.666667 334.933333 234.666667s334.933333-104.533333 334.933333-234.666667c0-6.4 0-14.933333-2.133333-21.333333C755.2-81.06666700000005 637.866667-128 512-128s-243.2 46.933333-332.8 121.6zM512 317.866667c-110.933333 0-200.533333 89.6-200.533333 200.533333s89.6 200.533333 200.533333 200.533333 200.533333-89.6 200.533333-200.533333-89.6-200.533333-200.533333-200.533333zM179.2-6.399999999999977c0 6.4-2.133333 14.933333-2.133333 21.333333 0 130.133333 149.333333 234.666667 334.933333 234.666667s334.933333-104.533333 334.933333-234.666667c0-6.4 0-14.933333-2.133333-21.333333C755.2-81.06666700000005 637.866667-128 512-128s-243.2 46.933333-332.8 121.6zM512 317.866667c-110.933333 0-200.533333 89.6-200.533333 200.533333s89.6 200.533333 200.533333 200.533333 200.533333-89.6 200.533333-200.533333-89.6-200.533333-200.533333-200.533333z"  horiz-adv-x="1024" />

    
    <glyph glyph-name="menu-collect" unicode="&#59578;" d="M512 109.824l-239.872-180.288a32 32 0 0 0-49.92 34.496l80.448 278.4-237.888 206.272a32 32 0 0 0 20.992 56.192h303.04l92.224 292.8a32 32 0 0 0 61.12-0.256L631.68 504.896h306.624a32 32 0 0 0 20.992-56.192l-237.888-206.208 80.512-278.464a32 32 0 0 0-49.92-34.496L512 109.824z"  horiz-adv-x="1024" />

    
    <glyph glyph-name="menu-uncollect" unicode="&#59584;" d="M512 109.824l-239.872-180.288a32 32 0 0 0-49.92 34.496l80.448 278.4-237.888 206.272a32 32 0 0 0 20.992 56.192h303.04l92.224 292.8a32 32 0 0 0 61.12-0.256L631.68 504.896h306.624a32 32 0 0 0 20.992-56.192l-237.888-206.208 80.512-278.464a32 32 0 0 0-49.92-34.496L512 109.824zM512 678.4L435.2 441.6H169.6l205.44-176.64-65.28-226.56L512 190.72l202.24-152.32-65.92 224 204.8 179.2h-268.8L512 678.4z"  horiz-adv-x="1024" />

    


  </font>
</defs>
</svg>
